<mxfile host="app.diagrams.net" modified="2022-03-03T13:44:42.666Z" agent="5.0 (X11; Linux x86_64) AppleWebKit/537.36 (KHTML, like Gecko) Chrome/98.0.4758.102 Safari/537.36" etag="yoE6ax0xPFKyzIEbyfq6" version="16.6.2" type="github">
  <diagram id="k5SUag9Ho0u8CV1AJ7L-" name="Page-1">
    <mxGraphModel dx="1325" dy="593" grid="1" gridSize="10" guides="1" tooltips="1" connect="1" arrows="1" fold="1" page="1" pageScale="1" pageWidth="1169" pageHeight="827" math="0" shadow="0">
      <root>
        <mxCell id="0" />
        <mxCell id="1" parent="0" />
        <mxCell id="_Js66h7v3PYeyDJIJU7y-18" value="" style="rounded=1;whiteSpace=wrap;html=1;shadow=1;fillColor=#FFE6CC;" vertex="1" parent="1">
          <mxGeometry x="130" y="70" width="470" height="300" as="geometry" />
        </mxCell>
        <mxCell id="_Js66h7v3PYeyDJIJU7y-2" value="&lt;span style=&quot;font-weight: normal&quot;&gt;Adapter &amp;amp;&amp;amp; Factory&lt;/span&gt;" style="rounded=1;whiteSpace=wrap;html=1;shadow=1;glass=0;hachureGap=4;pointerEvents=0;strokeWidth=1;fillColor=#d5e8d4;fontStyle=1;strokeColor=#82b366;gradientColor=#97d077;" vertex="1" parent="1">
          <mxGeometry x="150" y="90" width="130" height="30" as="geometry" />
        </mxCell>
        <mxCell id="_Js66h7v3PYeyDJIJU7y-3" value="&amp;lt;&amp;lt;interface&amp;gt;&amp;gt;&lt;br&gt;SchemaFactory" style="rounded=1;whiteSpace=wrap;html=1;shadow=1;glass=0;hachureGap=4;pointerEvents=0;strokeWidth=1;fillColor=#f0a30a;strokeColor=#BD7000;fontColor=#000000;" vertex="1" parent="1">
          <mxGeometry x="220" y="140" width="90" height="36" as="geometry" />
        </mxCell>
        <mxCell id="_Js66h7v3PYeyDJIJU7y-4" value="&amp;lt;&amp;lt;interface&amp;gt;&amp;gt;&lt;br&gt;SubSchema" style="rounded=1;whiteSpace=wrap;html=1;shadow=1;glass=0;hachureGap=4;pointerEvents=0;strokeWidth=1;fillColor=#f0a30a;strokeColor=#BD7000;fontColor=#000000;arcSize=0;" vertex="1" parent="1">
          <mxGeometry x="255" y="307" width="90" height="36" as="geometry" />
        </mxCell>
        <mxCell id="_Js66h7v3PYeyDJIJU7y-5" value="&amp;lt;&amp;lt;interface&amp;gt;&amp;gt;&lt;br&gt;Schema" style="rounded=1;whiteSpace=wrap;html=1;shadow=1;glass=0;hachureGap=4;pointerEvents=0;strokeWidth=1;fillColor=#f0a30a;strokeColor=#BD7000;fontColor=#000000;" vertex="1" parent="1">
          <mxGeometry x="220" y="220" width="90" height="36" as="geometry" />
        </mxCell>
        <mxCell id="_Js66h7v3PYeyDJIJU7y-6" value="&amp;lt;&amp;lt;JSON&amp;gt;&amp;gt;&lt;br&gt;Model" style="rounded=1;whiteSpace=wrap;html=1;shadow=1;glass=0;hachureGap=4;pointerEvents=0;strokeWidth=1;fillColor=#f0a30a;strokeColor=#BD7000;fontColor=#000000;" vertex="1" parent="1">
          <mxGeometry x="420" y="140" width="90" height="36" as="geometry" />
        </mxCell>
        <mxCell id="_Js66h7v3PYeyDJIJU7y-7" value="" style="edgeStyle=none;curved=1;rounded=0;orthogonalLoop=1;jettySize=auto;html=1;endArrow=classicThin;sourcePerimeterSpacing=8;targetPerimeterSpacing=8;startArrow=none;startFill=0;endFill=1;exitX=0;exitY=0.5;exitDx=0;exitDy=0;entryX=1;entryY=0.5;entryDx=0;entryDy=0;" edge="1" parent="1" source="_Js66h7v3PYeyDJIJU7y-6" target="_Js66h7v3PYeyDJIJU7y-3">
          <mxGeometry relative="1" as="geometry">
            <mxPoint x="730" y="168" as="sourcePoint" />
            <mxPoint x="230" y="160" as="targetPoint" />
          </mxGeometry>
        </mxCell>
        <mxCell id="_Js66h7v3PYeyDJIJU7y-8" value="&amp;lt;&amp;lt;interface&amp;gt;&amp;gt;&lt;br&gt;Function" style="rounded=1;whiteSpace=wrap;html=1;shadow=1;glass=0;hachureGap=4;pointerEvents=0;strokeWidth=1;fillColor=#f0a30a;strokeColor=#BD7000;fontColor=#000000;arcSize=0;" vertex="1" parent="1">
          <mxGeometry x="145" y="307" width="90" height="36" as="geometry" />
        </mxCell>
        <mxCell id="_Js66h7v3PYeyDJIJU7y-9" value="&amp;lt;&amp;lt;interface&amp;gt;&amp;gt;&lt;br&gt;Expression" style="rounded=1;whiteSpace=wrap;html=1;shadow=1;glass=0;hachureGap=4;pointerEvents=0;strokeWidth=1;fillColor=#f0a30a;strokeColor=#BD7000;fontColor=#000000;arcSize=0;" vertex="1" parent="1">
          <mxGeometry x="365" y="307" width="90" height="36" as="geometry" />
        </mxCell>
        <mxCell id="_Js66h7v3PYeyDJIJU7y-10" value="&amp;lt;&amp;lt;interface&amp;gt;&amp;gt;&lt;br&gt;Table" style="rounded=1;whiteSpace=wrap;html=1;shadow=1;glass=0;hachureGap=4;pointerEvents=0;strokeWidth=1;fillColor=#f0a30a;strokeColor=#BD7000;fontColor=#000000;arcSize=0;" vertex="1" parent="1">
          <mxGeometry x="485" y="307" width="90" height="36" as="geometry" />
        </mxCell>
        <mxCell id="_Js66h7v3PYeyDJIJU7y-11" value="" style="edgeStyle=none;curved=1;rounded=0;orthogonalLoop=1;jettySize=auto;html=1;endArrow=classicThin;sourcePerimeterSpacing=8;targetPerimeterSpacing=8;startArrow=none;startFill=0;endFill=1;exitX=0.5;exitY=1;exitDx=0;exitDy=0;entryX=0.5;entryY=0;entryDx=0;entryDy=0;" edge="1" parent="1" source="_Js66h7v3PYeyDJIJU7y-3" target="_Js66h7v3PYeyDJIJU7y-5">
          <mxGeometry relative="1" as="geometry">
            <mxPoint x="430" y="168" as="sourcePoint" />
            <mxPoint x="320" y="168" as="targetPoint" />
          </mxGeometry>
        </mxCell>
        <mxCell id="_Js66h7v3PYeyDJIJU7y-12" value="" style="edgeStyle=none;curved=1;rounded=0;orthogonalLoop=1;jettySize=auto;html=1;endArrow=classicThin;sourcePerimeterSpacing=8;targetPerimeterSpacing=8;startArrow=none;startFill=0;endFill=1;exitX=0.5;exitY=1;exitDx=0;exitDy=0;entryX=0.5;entryY=0;entryDx=0;entryDy=0;" edge="1" parent="1" source="_Js66h7v3PYeyDJIJU7y-5" target="_Js66h7v3PYeyDJIJU7y-8">
          <mxGeometry relative="1" as="geometry">
            <mxPoint x="275" y="186" as="sourcePoint" />
            <mxPoint x="275" y="230" as="targetPoint" />
          </mxGeometry>
        </mxCell>
        <mxCell id="_Js66h7v3PYeyDJIJU7y-13" value="" style="edgeStyle=none;curved=1;rounded=0;orthogonalLoop=1;jettySize=auto;html=1;endArrow=classicThin;sourcePerimeterSpacing=8;targetPerimeterSpacing=8;startArrow=none;startFill=0;endFill=1;exitX=0.5;exitY=1;exitDx=0;exitDy=0;entryX=0.5;entryY=0;entryDx=0;entryDy=0;" edge="1" parent="1" source="_Js66h7v3PYeyDJIJU7y-5" target="_Js66h7v3PYeyDJIJU7y-4">
          <mxGeometry relative="1" as="geometry">
            <mxPoint x="275" y="266" as="sourcePoint" />
            <mxPoint x="215" y="350" as="targetPoint" />
          </mxGeometry>
        </mxCell>
        <mxCell id="_Js66h7v3PYeyDJIJU7y-14" value="" style="edgeStyle=none;curved=1;rounded=0;orthogonalLoop=1;jettySize=auto;html=1;endArrow=classicThin;sourcePerimeterSpacing=8;targetPerimeterSpacing=8;startArrow=none;startFill=0;endFill=1;entryX=0.5;entryY=0;entryDx=0;entryDy=0;exitX=0.5;exitY=1;exitDx=0;exitDy=0;" edge="1" parent="1" source="_Js66h7v3PYeyDJIJU7y-5" target="_Js66h7v3PYeyDJIJU7y-9">
          <mxGeometry relative="1" as="geometry">
            <mxPoint x="260" y="260" as="sourcePoint" />
            <mxPoint x="325" y="350" as="targetPoint" />
          </mxGeometry>
        </mxCell>
        <mxCell id="_Js66h7v3PYeyDJIJU7y-15" value="" style="edgeStyle=none;curved=1;rounded=0;orthogonalLoop=1;jettySize=auto;html=1;endArrow=classicThin;sourcePerimeterSpacing=8;targetPerimeterSpacing=8;startArrow=none;startFill=0;endFill=1;entryX=0.5;entryY=0;entryDx=0;entryDy=0;exitX=0.5;exitY=1;exitDx=0;exitDy=0;" edge="1" parent="1" source="_Js66h7v3PYeyDJIJU7y-5" target="_Js66h7v3PYeyDJIJU7y-10">
          <mxGeometry relative="1" as="geometry">
            <mxPoint x="270" y="260" as="sourcePoint" />
            <mxPoint x="435" y="350" as="targetPoint" />
          </mxGeometry>
        </mxCell>
        <mxCell id="_Js66h7v3PYeyDJIJU7y-16" value="instantiates" style="rounded=1;whiteSpace=wrap;html=1;shadow=1;hachureGap=4;pointerEvents=0;fillColor=#e1d5e7;strokeColor=#9673a6;sketch=0;glass=0;" vertex="1" parent="1">
          <mxGeometry x="270" y="190" width="70" height="14" as="geometry" />
        </mxCell>
        <mxCell id="_Js66h7v3PYeyDJIJU7y-17" value="解析model创建Schema" style="rounded=1;whiteSpace=wrap;html=1;shadow=1;hachureGap=4;pointerEvents=0;fillColor=#e1d5e7;strokeColor=#9673a6;sketch=0;glass=0;" vertex="1" parent="1">
          <mxGeometry x="355" y="186" width="140" height="34" as="geometry" />
        </mxCell>
      </root>
    </mxGraphModel>
  </diagram>
</mxfile>
